<svg id="logo" data-name="logo" xmlns="http://www.w3.org/2000/svg" x="0" y="0" width="16" height="16" viewBox="0 0 702.01 574.68"><defs><style>.cls-1{fill:red;}</style></defs><path class="cls-1" d="M467.73,267.14q59.06,9.86,68.89,51.67,9.84,51.68,9.85,169.77,4.9,100.89-4.93,155Q531.7,695.25,428.37,710q-88.58,0-142.71-2.46-54.14-4.92-93.49-73.81Q172.46,587,162.64,481.2q-4.94-100.87,4.92-167.31-4.94-34.44,78.74-46.75Q344.7,252.38,467.73,267.14ZM261.06,301.59q-44.3,7.38-39.37,46.75Q211.85,464,226.61,550.09q54.12-9.83,49.21-41.83,0-64-4.92-100.87Q261,370.48,261.06,301.59Zm108.26-9.84H320.11q-4.94,66.44,4.92,228.82,9.83,51.66-93.5,68.89a30.34,30.34,0,0,1,4.92,17.22h64q147.63-2.45,191.92,0V587q-123-12.3-108.26-71.35,0-17.22-4.92-51.67Q374.23,338.49,369.32,291.75Zm64,386.28q44.28-2.44,54.13-39.36-118.11-4.92-236.2,0,24.59,36.9,83.65,39.36Q369.31,680.5,433.29,678ZM531.7,264.68q-4.94-12.28,88.58-7.38,98.4,0,172.23,22.15,64,12.32,54.13,68.89,9.83,189.46,14.76,280.48,19.68,93.51-201.76,125.49Q516.93,778.9,418.52,806q-9.84,2.44-44.28,12.31T330,830.58Q295.5,823.2,325,803.51q93.48-34.46,270.64-64,0-324.76-9.84-442.87h-4.92Q536.63,299.13,531.7,264.68Zm-93.49,34.45-9.84-2.46q-9.86,155,9.84,211.59,0,32,54.13,41.83a1710.06,1710.06,0,0,0-14.77-221.44Q472.64,304.07,438.21,299.13Zm285.41-2.46q-34.47-4.92-78.74-4.92,0,351.86,4.92,438,19.68-7.38,49.21-9.84,108.25-14.76,108.26-88.58-4.93-120.54-19.68-282.94Q787.59,304,723.62,296.67Zm-14.77,24.6q34.44,2.48,34.45,34.45,0,130.41,9.84,228.82Q763,695.26,718.69,683q-24.6,0-24.6-81.19,0-179.6-9.84-231.28Q669.49,313.9,708.85,321.27Z" transform="translate(-161 -255.9)"/></svg>
